<svg xmlns="http://www.w3.org/2000/svg" width="18" height="21" viewBox="0 0 18 21" fill="none" stroke="currentcolor">
    <path fill-rule="evenodd" clip-rule="evenodd"
        d="M8.66432 16.6309L2.73297 19.8803C2.2594 20.1264 1.67597 19.9522 1.41489 19.4867V19.4867C1.33936 19.3425 1.29861 19.1827 1.2959 19.0199V4.62174C1.2959 1.87574 3.17233 0.777344 5.87256 0.777344H12.2158C14.8337 0.777344 16.7925 1.80252 16.7925 4.43867V19.0199C16.7925 19.2797 16.6893 19.5288 16.5056 19.7125C16.3219 19.8961 16.0728 19.9993 15.8131 19.9993C15.6474 19.9967 15.4845 19.956 15.3371 19.8803L9.36913 16.6309C9.14921 16.5121 8.88423 16.5121 8.66432 16.6309Z"
        stroke-width="1" stroke-linecap="round" stroke-linejoin="round" />
</svg>